<svg width="26" height="26" viewBox="0 0 26 26" fill="none" xmlns="http://www.w3.org/2000/svg">
<path d="M19.2714 8.50586C19.2714 5.02734 16.4531 2.20898 12.9745 2.20898C9.49602 2.20898 6.67766 5.02734 6.67766 8.50586C6.67766 10.6082 7.70852 12.4719 9.2929 13.6145C9.28274 13.6195 9.27512 13.6221 9.27005 13.6246C8.13509 14.1045 7.11692 14.7926 6.24095 15.6711C5.36497 16.5471 4.67942 17.5678 4.19954 18.7053C3.72981 19.8174 3.47845 20.998 3.45305 22.2117C3.45052 22.326 3.54192 22.4199 3.65618 22.4199H5.17708C5.28626 22.4199 5.37766 22.3311 5.3802 22.2219C5.43098 20.2617 6.21555 18.426 7.60442 17.0346C9.03899 15.5949 10.9433 14.8027 12.9745 14.8027C16.4531 14.8027 19.2714 11.9844 19.2714 8.50586ZM12.9745 12.873C10.5624 12.873 8.60735 10.918 8.60735 8.50586C8.60735 6.09375 10.5624 4.13867 12.9745 4.13867C15.3866 4.13867 17.3417 6.09375 17.3417 8.50586C17.3417 10.918 15.3866 12.873 12.9745 12.873ZM15.6406 18.4844H22.3437C22.4554 18.4844 22.5468 18.393 22.5468 18.2812V16.8594C22.5468 16.7477 22.4554 16.6562 22.3437 16.6562H17.8622L19.0607 15.1303C19.0886 15.0947 19.1038 15.049 19.1038 15.0059C19.1038 14.8941 19.0124 14.8027 18.9007 14.8027H17.0573C16.9329 14.8027 16.8161 14.8611 16.7374 14.9576L14.9982 17.1691C14.8865 17.3113 14.8255 17.4891 14.8255 17.6719C14.8281 18.1213 15.1911 18.4844 15.6406 18.4844ZM21.7343 20.1094H15.0312C14.9195 20.1094 14.8281 20.2008 14.8281 20.3125V21.7344C14.8281 21.8461 14.9195 21.9375 15.0312 21.9375H19.5126L18.3142 23.4635C18.2863 23.499 18.271 23.5447 18.271 23.5879C18.271 23.6996 18.3624 23.791 18.4741 23.791H20.3175C20.4419 23.791 20.5587 23.7326 20.6374 23.6361L22.3767 21.4246C22.4884 21.2824 22.5493 21.1047 22.5493 20.9219C22.5468 20.4725 22.1837 20.1094 21.7343 20.1094Z" fill="#0081B8"/>
</svg>
