<svg width="26" height="26" viewBox="0 0 26 26" fill="none" xmlns="http://www.w3.org/2000/svg">
<mask id="path-1-inside-1" fill="white">
<path d="M18.4167 22.75L15.4375 19.5L16.6942 18.2433L18.4167 19.9658L22.3058 16.0767L23.5625 17.6042L18.4167 22.75ZM13.8667 22.75H5.41667C4.21417 22.75 3.25 21.7858 3.25 20.5833V5.41667C3.25 4.21417 4.21417 3.25 5.41667 3.25H20.5833C21.7858 3.25 22.75 4.21417 22.75 5.41667V13.8667C22.0892 13.4875 21.3633 13.2167 20.5833 13.0867V5.41667H5.41667V20.5833H13.0867C13.2167 21.3633 13.4875 22.0892 13.8667 22.75ZM13 18.4167H7.58333V16.25H13V18.4167ZM15.9033 14.0833H7.58333V11.9167H18.4167V13.0867C17.4958 13.2383 16.6508 13.585 15.9033 14.0833ZM18.4167 9.75H7.58333V7.58333H18.4167"/>
</mask>
<path d="M18.4167 22.75L15.4375 19.5L16.6942 18.2433L18.4167 19.9658L22.3058 16.0767L23.5625 17.6042L18.4167 22.75ZM13.8667 22.75H5.41667C4.21417 22.75 3.25 21.7858 3.25 20.5833V5.41667C3.25 4.21417 4.21417 3.25 5.41667 3.25H20.5833C21.7858 3.25 22.75 4.21417 22.75 5.41667V13.8667C22.0892 13.4875 21.3633 13.2167 20.5833 13.0867V5.41667H5.41667V20.5833H13.0867C13.2167 21.3633 13.4875 22.0892 13.8667 22.75ZM13 18.4167H7.58333V16.25H13V18.4167ZM15.9033 14.0833H7.58333V11.9167H18.4167V13.0867C17.4958 13.2383 16.6508 13.585 15.9033 14.0833ZM18.4167 9.75H7.58333V7.58333H18.4167" fill="#D96556"/>
<path d="M18.4167 22.75L17.6795 23.4257L18.3853 24.1956L19.1238 23.4571L18.4167 22.75ZM15.4375 19.5L14.7304 18.7929L14.0534 19.4699L14.7003 20.1757L15.4375 19.5ZM16.6942 18.2433L17.4013 17.5362L16.6942 16.8291L15.9871 17.5362L16.6942 18.2433ZM18.4167 19.9658L17.7096 20.6729L18.4167 21.38L19.1238 20.6729L18.4167 19.9658ZM22.3058 16.0767L23.0781 15.4413L22.378 14.5903L21.5987 15.3696L22.3058 16.0767ZM23.5625 17.6042L24.2696 18.3113L24.9113 17.6696L24.3347 16.9688L23.5625 17.6042ZM13.8667 22.75V23.75H15.5934L14.734 22.2523L13.8667 22.75ZM22.75 13.8667L22.2523 14.734L23.75 15.5934V13.8667H22.75ZM20.5833 13.0867H19.5833V13.9338L20.4189 14.0731L20.5833 13.0867ZM20.5833 5.41667H21.5833V4.41667H20.5833V5.41667ZM5.41667 5.41667V4.41667H4.41667V5.41667H5.41667ZM5.41667 20.5833H4.41667V21.5833H5.41667V20.5833ZM13.0867 20.5833L14.0731 20.4189L13.9338 19.5833H13.0867V20.5833ZM13 18.4167V19.4167H14V18.4167H13ZM7.58333 18.4167H6.58333V19.4167H7.58333V18.4167ZM7.58333 16.25V15.25H6.58333V16.25H7.58333ZM13 16.25H14V15.25H13V16.25ZM15.9033 14.0833V15.0833H16.2061L16.458 14.9154L15.9033 14.0833ZM7.58333 14.0833H6.58333V15.0833H7.58333V14.0833ZM7.58333 11.9167V10.9167H6.58333V11.9167H7.58333ZM18.4167 11.9167H19.4167V10.9167H18.4167V11.9167ZM18.4167 13.0867L18.5792 14.0734L19.4167 13.9354V13.0867H18.4167ZM7.58333 9.75H6.58333V10.75H7.58333V9.75ZM7.58333 7.58333V6.58333H6.58333V7.58333H7.58333ZM19.1538 22.0743L16.1747 18.8243L14.7003 20.1757L17.6795 23.4257L19.1538 22.0743ZM16.1446 20.2071L17.4013 18.9504L15.9871 17.5362L14.7304 18.7929L16.1446 20.2071ZM15.9871 18.9504L17.7096 20.6729L19.1238 19.2587L17.4013 17.5362L15.9871 18.9504ZM19.1238 20.6729L23.0129 16.7838L21.5987 15.3696L17.7096 19.2587L19.1238 20.6729ZM21.5336 16.712L22.7903 18.2395L24.3347 16.9688L23.0781 15.4413L21.5336 16.712ZM22.8554 16.8971L17.7096 22.0429L19.1238 23.4571L24.2696 18.3113L22.8554 16.8971ZM13.8667 21.75H5.41667V23.75H13.8667V21.75ZM5.41667 21.75C4.76645 21.75 4.25 21.2335 4.25 20.5833H2.25C2.25 22.3381 3.66188 23.75 5.41667 23.75V21.75ZM4.25 20.5833V5.41667H2.25V20.5833H4.25ZM4.25 5.41667C4.25 4.76645 4.76645 4.25 5.41667 4.25V2.25C3.66188 2.25 2.25 3.66188 2.25 5.41667H4.25ZM5.41667 4.25H20.5833V2.25H5.41667V4.25ZM20.5833 4.25C21.2335 4.25 21.75 4.76645 21.75 5.41667H23.75C23.75 3.66188 22.3381 2.25 20.5833 2.25V4.25ZM21.75 5.41667V13.8667H23.75V5.41667H21.75ZM23.2477 12.9993C22.4902 12.5647 21.6522 12.251 20.7477 12.1003L20.4189 14.0731C21.0745 14.1823 21.6881 14.4103 22.2523 14.734L23.2477 12.9993ZM21.5833 13.0867V5.41667H19.5833V13.0867H21.5833ZM20.5833 4.41667H5.41667V6.41667H20.5833V4.41667ZM4.41667 5.41667V20.5833H6.41667V5.41667H4.41667ZM5.41667 21.5833H13.0867V19.5833H5.41667V21.5833ZM12.1003 20.7477C12.251 21.6522 12.5647 22.4902 12.9993 23.2477L14.734 22.2523C14.4103 21.6881 14.1823 21.0745 14.0731 20.4189L12.1003 20.7477ZM13 17.4167H7.58333V19.4167H13V17.4167ZM8.58333 18.4167V16.25H6.58333V18.4167H8.58333ZM7.58333 17.25H13V15.25H7.58333V17.25ZM12 16.25V18.4167H14V16.25H12ZM15.9033 13.0833H7.58333V15.0833H15.9033V13.0833ZM8.58333 14.0833V11.9167H6.58333V14.0833H8.58333ZM7.58333 12.9167H18.4167V10.9167H7.58333V12.9167ZM17.4167 11.9167V13.0867H19.4167V11.9167H17.4167ZM18.2542 12.1C17.1866 12.2758 16.2088 12.6779 15.3486 13.2513L16.458 14.9154C17.0929 14.4921 17.8051 14.2009 18.5792 14.0734L18.2542 12.1ZM18.4167 8.75H7.58333V10.75H18.4167V8.75ZM8.58333 9.75V7.58333H6.58333V9.75H8.58333ZM7.58333 8.58333H18.4167V6.58333H7.58333V8.58333Z" fill="#D96556" mask="url(#path-1-inside-1)"/>
<rect x="15.1667" y="15.1667" width="8.66667" height="7.58333" fill="white"/>
<path d="M16.25 16.25L21.6667 21.6667" stroke="#D96556" stroke-width="1.5"/>
<path d="M21.6667 16.25L16.25 21.6667" stroke="#D96556" stroke-width="1.5"/>
</svg>
