<svg width="26" height="26" viewBox="0 0 26 26" fill="none" xmlns="http://www.w3.org/2000/svg">
<path d="M18.4167 22.75L15.4375 19.5L16.6942 18.2433L18.4167 19.9658L22.3058 16.0767L23.5625 17.6042L18.4167 22.75ZM13.8667 22.75H5.41667C4.21417 22.75 3.25 21.7858 3.25 20.5833V5.41667C3.25 4.21417 4.21417 3.25 5.41667 3.25H20.5833C21.7858 3.25 22.75 4.21417 22.75 5.41667V13.8667C22.0892 13.4875 21.3633 13.2167 20.5833 13.0867V5.41667H5.41667V20.5833H13.0867C13.2167 21.3633 13.4875 22.0892 13.8667 22.75ZM13 18.4167H7.58333V16.25H13V18.4167ZM15.9033 14.0833H7.58333V11.9167H18.4167V13.0867C17.4958 13.2383 16.6508 13.585 15.9033 14.0833ZM18.4167 9.75H7.58333V7.58333H18.4167" fill="#2ECC71"/>
</svg>
