<svg width="26" height="26" viewBox="0 0 26 26" fill="none" xmlns="http://www.w3.org/2000/svg">
<path d="M23.6166 15.7083C23.075 14.8417 21.775 14.5167 19.6083 14.5167C18.85 14.5167 18.0916 14.5167 17.3333 14.625C16.7916 14.3 16.25 13.975 15.8166 13.65C14.7333 12.7833 13.7583 11.1583 13 9.20833C13 9.20833 13 9.09999 13.1083 8.99166C13.65 6.71666 14.1916 3.89999 13.1083 2.70833C12.7833 2.38333 12.4583 2.27499 12.025 2.27499H11.5916C10.9416 2.27499 10.4 2.92499 10.1833 3.57499C9.53331 5.84999 9.96664 7.14999 10.6166 9.20833C10.1833 10.8333 9.64164 12.5667 8.66664 14.4083C8.12498 15.6 7.47498 16.6833 7.04164 17.55C6.39164 17.875 5.84998 18.2 5.52498 18.4167C3.46664 19.7167 2.38331 21.2333 2.27498 22.1C2.16664 22.425 2.16664 22.75 2.27498 22.9667V23.075L3.14164 23.6167C3.35831 23.725 3.68331 23.8333 3.89998 23.8333C5.30831 23.8333 6.93331 22.2083 9.09998 18.4167C9.20831 18.4167 9.31664 18.3083 9.42498 18.3083C11.2666 17.7667 13.4333 17.3333 16.4666 17.0083C18.2 17.875 20.3666 18.3083 21.6666 18.3083C22.425 18.3083 22.9666 18.0917 23.2916 17.7667C23.6166 17.4417 23.725 17.0083 23.8333 16.575C23.8333 16.25 23.8333 15.925 23.6166 15.7083ZM3.68331 22.6417C3.79164 21.9917 4.54998 20.8 5.84998 19.7167C6.06664 19.6083 6.28331 19.3917 6.71664 19.175C5.41664 21.2333 4.44164 22.3167 3.68331 22.6417ZM11.7 3.46666C11.8083 3.35833 11.8083 3.24999 11.9166 3.24999L12.1333 3.35833C12.4583 3.79166 12.4583 4.33333 12.2416 5.30833V5.63333C12.1333 6.06666 12.1333 6.49999 11.9166 7.04166C11.4833 5.41666 11.4833 4.22499 11.7 3.46666ZM9.53331 17.1167L9.31664 17.225C9.42498 16.6833 9.85831 16.0333 10.1833 15.3833C10.9416 13.8667 11.5916 12.4583 11.9166 11.1583C12.675 12.7833 13.5416 13.975 14.625 14.95C14.8416 15.1667 15.0583 15.3833 15.3833 15.4917C13.8666 15.7083 11.8083 16.25 9.53331 17.1167ZM22.6416 17.0083H22.2083C21.45 17.0083 20.15 16.6833 18.85 16.1417C18.9583 15.925 19.175 15.925 19.2833 15.925C21.775 15.925 22.425 16.3583 22.6416 16.575C22.75 16.6833 22.75 16.6833 22.75 16.7917C22.75 16.9 22.75 16.9 22.6416 17.0083Z" fill="#4B5064"/>
</svg>
